<?xml version="1.0" standalone="no"?>
<!DOCTYPE svg PUBLIC "-//W3C//DTD SVG 20010904//EN"
 "http://www.w3.org/TR/2001/REC-SVG-20010904/DTD/svg10.dtd">
<svg version="1.0" xmlns="http://www.w3.org/2000/svg"
 width="256.000000pt" height="256.000000pt" viewBox="0 0 256.000000 256.000000"
 preserveAspectRatio="xMidYMid meet">
<metadata>
Created by potrace 1.14, written by Peter Selinger 2001-2017
</metadata>
<g transform="translate(0.000000,256.000000) scale(0.100000,-0.100000)"
fill="#000000" stroke="none">
<path d="M12 2548 c-17 -17 -17 -2519 0 -2536 17 -17 2519 -17 2536 0 17 17
17 2519 0 2536 -17 17 -2519 17 -2536 0z m858 -963 l0 -75 -110 0 -110 0 0
-335 0 -335 -90 0 -90 0 0 335 0 335 -110 0 -110 0 0 75 0 75 310 0 310 0 0
-75z m588 -328 c78 -222 142 -407 142 -411 0 -4 -41 -5 -92 -4 l-92 3 -28 93
-29 93 -151 -3 -151 -3 -27 -90 -27 -90 -92 -3 c-50 -1 -91 1 -91 6 0 5 63
188 140 407 77 219 140 400 140 402 0 1 48 3 108 3 l107 0 143 -403z m423 216
c0 -180 1 -187 17 -163 9 13 75 98 145 187 l128 163 95 0 c74 0 93 -3 87 -12
-4 -7 -67 -89 -140 -182 -108 -137 -131 -171 -123 -186 5 -10 68 -111 140
-224 71 -114 130 -209 130 -211 0 -3 -44 -5 -97 -5 l-98 1 -104 169 c-57 94
-106 170 -109 170 -3 0 -20 -11 -39 -26 l-33 -25 0 -145 0 -144 -85 0 -85 0 0
410 0 410 85 0 85 0 1 -187z"/>
<path d="M1157 1356 c-26 -88 -47 -164 -47 -168 0 -5 47 -8 104 -8 l104 0 -52
164 c-28 90 -53 167 -56 169 -3 3 -26 -68 -53 -157z"/>
</g>
</svg>
